<svg width="64" height="36" viewBox="0 0 64 36" fill="none" xmlns="http://www.w3.org/2000/svg">
<path d="M2.2 35.6C1.90667 35.7067 1.69333 35.6267 1.56 35.36C1.42667 35.1733 1.33333 34.9467 1.28 34.68C1.28 34.5733 1.26667 34.4667 1.24 34.36C1.24 34.28 1.24 34.1867 1.24 34.08C1.21333 34.0267 1.2 33.9733 1.2 33.92C1.22667 33.7067 1.24 33.5067 1.24 33.32C1.24 33.1333 1.25333 32.9467 1.28 32.76C1.28 32.3867 1.28 32 1.28 31.6C1.30667 31.2267 1.30667 30.84 1.28 30.44C1.28 30.12 1.18667 29.7733 1 29.4C0.84 29.0533 0.72 28.6667 0.64 28.24C0.613333 28.1067 0.6 27.9867 0.6 27.88C0.6 27.7733 0.6 27.6667 0.6 27.56C0.653333 27.2667 0.693333 26.9733 0.72 26.68C0.746667 26.36 0.773333 26.0533 0.8 25.76C0.853333 25.4667 0.88 25.1733 0.88 24.88C0.906667 24.5867 0.933333 24.3067 0.96 24.04C0.986667 23.7467 1.01333 23.4667 1.04 23.2C1.09333 22.9067 1.10667 22.6133 1.08 22.32C1.13333 22.0267 1.16 21.7467 1.16 21.48C1.18667 21.1867 1.21333 20.9067 1.24 20.64C1.29333 20.4267 1.30667 20.2267 1.28 20.04C1.28 19.8267 1.26667 19.6267 1.24 19.44C1.21333 19.3067 1.2 19.2 1.2 19.12C1.22667 19.0133 1.24 18.9067 1.24 18.8C1.26667 18.6667 1.28 18.5333 1.28 18.4C1.28 18.24 1.29333 18.1067 1.32 18V16.44C1.29333 16.0933 1.28 15.76 1.28 15.44C1.30667 15.0933 1.32 14.7467 1.32 14.4C1.29333 14.1333 1.28 13.8667 1.28 13.6C1.30667 13.3067 1.33333 13.0267 1.36 12.76C1.38667 12.68 1.4 12.6 1.4 12.52C1.4 12.44 1.4 12.3733 1.4 12.32V10.96C1.4 10.8 1.41333 10.68 1.44 10.6V10.08C1.38667 10 1.38667 9.89333 1.44 9.76C1.49333 9.52 1.49333 9.28 1.44 9.04C1.41333 8.98667 1.4 8.93333 1.4 8.88C1.42667 8.8 1.44 8.72 1.44 8.64C1.44 8.50667 1.44 8.38667 1.44 8.28C1.46667 8.14667 1.48 8.01333 1.48 7.88C1.48 7.77333 1.48 7.66667 1.48 7.56C1.50667 7.42667 1.53333 7.30667 1.56 7.2V7.04C1.56 6.82667 1.57333 6.61333 1.6 6.4C1.62667 6.16 1.65333 5.94667 1.68 5.76L1.92 4.2C1.97333 3.93333 2.02667 3.68 2.08 3.44C2.16 3.2 2.25333 2.96 2.36 2.72C2.52 2.24 2.81333 1.8 3.24 1.4C3.37333 1.29333 3.50667 1.2 3.64 1.12C3.8 1.04 3.97333 0.999998 4.16 0.999998C4.18667 0.973332 4.22667 0.959999 4.28 0.959999C4.46667 0.906666 4.64 0.893333 4.8 0.919999C4.96 0.946665 5.12 0.986665 5.28 1.04C5.65333 1.12 5.93333 1.32 6.12 1.64C6.25333 1.82667 6.32 2 6.32 2.16C6.32 2.29333 6.33333 2.4 6.36 2.48C6.44 2.82667 6.46667 3.14666 6.44 3.44C6.44 3.54666 6.44 3.65333 6.44 3.76C6.46667 3.86667 6.49333 3.98667 6.52 4.12C6.57333 4.25333 6.6 4.4 6.6 4.56C6.6 4.69333 6.6 4.82667 6.6 4.96C6.6 5.14667 6.58667 5.33333 6.56 5.52C6.53333 5.68 6.50667 5.85333 6.48 6.04C6.45333 6.14667 6.42667 6.26667 6.4 6.4C6.4 6.50667 6.37333 6.62666 6.32 6.76C6.29333 6.94667 6.25333 7.13333 6.2 7.32C6.17333 7.50667 6.14667 7.69333 6.12 7.88V8.04C6.06667 8.30667 6.02667 8.58667 6 8.88C5.97333 9.14667 5.93333 9.41333 5.88 9.68C5.85333 9.76 5.84 9.84 5.84 9.92C5.84 10 5.84 10.0667 5.84 10.12C5.84 10.2 5.84 10.28 5.84 10.36C5.84 10.44 5.82667 10.52 5.8 10.6C5.77333 10.76 5.76 10.92 5.76 11.08C5.76 11.24 5.74667 11.4133 5.72 11.6C5.72 11.6267 5.72 11.64 5.72 11.64C5.74667 11.64 5.76 11.6533 5.76 11.68C5.76 11.7067 5.77333 11.7333 5.8 11.76C5.85333 11.7867 5.89333 11.7867 5.92 11.76C6.02667 11.7067 6.12 11.64 6.2 11.56C6.49333 11.32 6.8 11.08 7.12 10.84C7.44 10.6 7.76 10.36 8.08 10.12C8.37333 9.90667 8.66667 9.69333 8.96 9.48C9.25333 9.26667 9.54667 9.05333 9.84 8.84C9.86667 8.84 9.89333 8.82667 9.92 8.8C10.1867 8.58667 10.44 8.37333 10.68 8.16C10.9467 7.94667 11.2 7.73333 11.44 7.52C11.7333 7.25333 12.0133 6.98666 12.28 6.72C12.5733 6.45333 12.84 6.17333 13.08 5.88C13.1333 5.82667 13.1867 5.77333 13.24 5.72C13.2933 5.66667 13.3467 5.61333 13.4 5.56L14.72 4.12C14.9333 3.88 15.2133 3.62667 15.56 3.36C15.6933 3.25333 15.84 3.18667 16 3.16C16.0533 3.16 16.0933 3.16 16.12 3.16C16.1467 3.13333 16.1733 3.13333 16.2 3.16C16.3333 3.16 16.4533 3.17333 16.56 3.2C16.6667 3.2 16.7733 3.21333 16.88 3.24C16.96 3.26667 17.08 3.28 17.24 3.28C17.3733 3.22667 17.4667 3.26666 17.52 3.4C17.52 3.42666 17.5467 3.44 17.6 3.44C17.6267 3.44 17.6933 3.41333 17.8 3.36C17.88 3.36 17.92 3.38667 17.92 3.44C18 3.6 18.12 3.72 18.28 3.8C18.28 3.82667 18.28 3.84 18.28 3.84C18.3067 3.84 18.32 3.84 18.32 3.84V3.96C18.32 4.09333 18.3733 4.17333 18.48 4.2C18.5067 4.2 18.52 4.21333 18.52 4.24C18.5467 4.24 18.56 4.24 18.56 4.24C18.6133 4.26667 18.6667 4.33333 18.72 4.44C18.72 4.62666 18.76 4.82666 18.84 5.04C19 5.49333 18.9867 5.93333 18.8 6.36C18.6133 6.84 18.3467 7.30667 18 7.76L17 9.08C16.8933 9.21333 16.7733 9.34667 16.64 9.48C16.5067 9.61333 16.3733 9.73333 16.24 9.84C16.1067 9.97333 16.0133 10.08 15.96 10.16C15.9067 10.2133 15.8533 10.2667 15.8 10.32C15.7467 10.3733 15.6933 10.4267 15.64 10.48C15.5067 10.6667 15.3467 10.8133 15.16 10.92C15.0267 11.0267 14.88 11.1333 14.72 11.24C14.56 11.32 14.4133 11.4267 14.28 11.56C14.1467 11.6667 13.9867 11.76 13.8 11.84C13.64 11.8933 13.48 11.9467 13.32 12C13.1867 12.08 13.0267 12.0933 12.84 12.04H12.8C12.4533 11.9333 12.0933 12 11.72 12.24C11.64 12.2933 11.5467 12.3467 11.44 12.4C11.36 12.4533 11.2667 12.5067 11.16 12.56C10.9733 12.72 10.76 12.8667 10.52 13C10.4133 13.0533 10.32 13.12 10.24 13.2C10.16 13.2533 10.08 13.3067 10 13.36C9.78667 13.52 9.56 13.68 9.32 13.84C9.08 13.9733 8.85333 14.12 8.64 14.28L7.84 14.76C7.76 14.8133 7.66667 14.88 7.56 14.96C7.48 15.0133 7.38667 15.08 7.28 15.16C7.22667 15.2133 7.22667 15.2667 7.28 15.32L7.76 15.68C8.10667 15.8667 8.44 16.08 8.76 16.32C9.08 16.5333 9.4 16.76 9.72 17C10.0133 17.2133 10.2933 17.44 10.56 17.68C10.8533 17.8933 11.1467 18.1067 11.44 18.32C11.4933 18.3467 11.5467 18.3867 11.6 18.44C11.68 18.4933 11.7333 18.5467 11.76 18.6C12.0533 18.84 12.32 19.08 12.56 19.32C12.8267 19.5333 13.0933 19.76 13.36 20C13.8133 20.4267 14.28 20.84 14.76 21.24C15.24 21.6133 15.6933 22.0267 16.12 22.48L16.48 22.84C16.64 23.0267 16.8 23.2 16.96 23.36C17.1467 23.4933 17.3333 23.64 17.52 23.8C17.68 23.88 17.8 23.9867 17.88 24.12L18 24.24C18.1867 24.4267 18.3067 24.6267 18.36 24.84C18.4133 25.0533 18.4267 25.2933 18.4 25.56L18.36 25.84C18.3867 26.0267 18.3333 26.1733 18.2 26.28C18.12 26.3067 18.08 26.4133 18.08 26.6C18.08 26.7067 18.0267 26.76 17.92 26.76C17.8133 26.7867 17.72 26.84 17.64 26.92C17.4533 27.08 17.2267 27.2 16.96 27.28L16.64 27.4C16.5333 27.4533 16.4533 27.4667 16.4 27.44C16.2933 27.3867 16.1733 27.3333 16.04 27.28C15.9067 27.2267 15.7733 27.1867 15.64 27.16C15.5867 27.1333 15.5067 27.0667 15.4 26.96C15.2667 26.8267 15.1333 26.6933 15 26.56C14.8667 26.4 14.7333 26.24 14.6 26.08C14.4133 25.8667 14.2133 25.6533 14 25.44C13.7867 25.2267 13.5733 25.0267 13.36 24.84L12.08 23.76C11.7867 23.4667 11.48 23.2 11.16 22.96C10.84 22.72 10.5067 22.4667 10.16 22.2C10.1067 22.1467 9.98667 22.0933 9.8 22.04C9.72 22.04 9.64 22.0267 9.56 22C9.48 21.9467 9.4 21.9067 9.32 21.88C9.13333 21.8 8.94667 21.72 8.76 21.64C8.6 21.56 8.42667 21.4667 8.24 21.36C8.08 21.2533 7.92 21.1467 7.76 21.04C7.6 20.9333 7.44 20.8267 7.28 20.72C7.09333 20.56 6.88 20.4133 6.64 20.28C6.42667 20.12 6.21333 19.9733 6 19.84C5.97333 19.8133 5.93333 19.8 5.88 19.8C5.85333 19.8 5.81333 19.7867 5.76 19.76C5.65333 19.7067 5.57333 19.7467 5.52 19.88C5.46667 19.9333 5.41333 20.04 5.36 20.2L5.24 20.84C5.21333 21.08 5.17333 21.3333 5.12 21.6C5.09333 21.84 5.06667 22.08 5.04 22.32C5.01333 22.5067 4.98667 22.6933 4.96 22.88C4.93333 23.04 4.90667 23.2 4.88 23.36C4.85333 23.52 4.82667 23.68 4.8 23.84C4.77333 24 4.73333 24.16 4.68 24.32C4.65333 24.4267 4.64 24.5467 4.64 24.68C4.64 24.7867 4.64 24.9067 4.64 25.04V26.36C4.64 26.68 4.61333 27 4.56 27.32C4.50667 27.6133 4.45333 27.9067 4.4 28.2C4.32 28.7333 4.12 29.1733 3.8 29.52C3.61333 29.7867 3.48 30.0933 3.4 30.44C3.29333 30.92 3.21333 31.4267 3.16 31.96C3.13333 32.0667 3.12 32.1733 3.12 32.28C3.12 32.4133 3.10667 32.5467 3.08 32.68C3.05333 32.7867 3.04 32.9067 3.04 33.04C3.04 33.2 3.02667 33.3467 3 33.48C2.97333 33.6933 2.94667 33.9067 2.92 34.12C2.92 34.36 2.89333 34.5867 2.84 34.8C2.81333 34.9867 2.73333 35.16 2.6 35.32C2.49333 35.4533 2.36 35.5467 2.2 35.6ZM30.355 34.32C29.9283 34.5867 29.5817 34.4933 29.315 34.04C29.2083 33.88 29.155 33.7333 29.155 33.6L29.035 33.04C29.0083 32.64 28.955 32.24 28.875 31.84C28.795 31.44 28.7017 31.0267 28.595 30.6C28.595 30.5467 28.5817 30.4933 28.555 30.44C28.555 30.4133 28.555 30.3733 28.555 30.32C28.555 30.2133 28.5417 30.1333 28.515 30.08C28.435 29.68 28.2217 29.3867 27.875 29.2C27.635 29.0667 27.3817 28.9467 27.115 28.84C26.875 28.7067 26.6217 28.5867 26.355 28.48L25.355 28C25.1417 27.8933 24.9417 27.72 24.755 27.48C24.4617 27.16 24.195 26.8267 23.955 26.48C23.715 26.1333 23.515 25.76 23.355 25.36C23.3017 25.2 23.235 25.04 23.155 24.88C23.1017 24.72 23.0483 24.56 22.995 24.4C22.9417 24.2667 22.9017 24.1333 22.875 24C22.8483 23.8667 22.8083 23.7467 22.755 23.64L22.515 22.8C22.4617 22.6933 22.435 22.5867 22.435 22.48C22.4083 22.2933 22.3817 22.12 22.355 21.96C22.355 21.7733 22.3283 21.5867 22.275 21.4C22.2483 21.2133 22.2217 21.0267 22.195 20.84C22.195 20.6533 22.195 20.4667 22.195 20.28C22.195 20.1733 22.1817 20.0933 22.155 20.04C22.1283 19.6667 22.115 19.3067 22.115 18.96C22.115 18.6133 22.1017 18.2667 22.075 17.92C22.075 17.7067 22.075 17.4933 22.075 17.28C22.075 17.0667 22.0883 16.8667 22.115 16.68L22.235 15.24C22.235 15.16 22.235 15.0933 22.235 15.04C22.2617 14.96 22.275 14.8933 22.275 14.84C22.3017 14.4933 22.3283 14.16 22.355 13.84C22.4083 13.52 22.475 13.2 22.555 12.88C22.6083 12.8 22.635 12.72 22.635 12.64C22.635 12.56 22.635 12.48 22.635 12.4C22.715 12.1067 22.7817 11.8133 22.835 11.52C22.915 11.2 22.9817 10.88 23.035 10.56L23.275 9.24C23.3283 9.02667 23.3683 8.81333 23.395 8.6C23.4483 8.38667 23.5017 8.17333 23.555 7.96C23.7683 7.05333 24.1417 6.28 24.675 5.64C24.995 5.18667 25.3683 4.82667 25.795 4.56C26.115 4.34667 26.435 4.13333 26.755 3.92C27.1017 3.70666 27.4483 3.52 27.795 3.36C28.1683 3.14666 28.555 2.96 28.955 2.8C29.355 2.64 29.7683 2.49333 30.195 2.36C30.3817 2.30667 30.555 2.25333 30.715 2.2C30.9017 2.14667 31.0883 2.10666 31.275 2.08C31.595 2 31.915 1.97333 32.235 2C32.555 2 32.8617 2.06667 33.155 2.2C33.5283 2.33333 33.8483 2.50667 34.115 2.72C34.2483 2.82667 34.3817 2.93333 34.515 3.04C34.675 3.12 34.8083 3.22667 34.915 3.36C35.475 3.76 35.835 4.30667 35.995 5C36.0217 5.10667 36.0483 5.21333 36.075 5.32C36.1017 5.4 36.115 5.50666 36.115 5.64C36.1417 6.12 36.0617 6.57333 35.875 7C35.8217 7.10667 35.755 7.22667 35.675 7.36C35.6217 7.46667 35.5417 7.57333 35.435 7.68C35.3017 7.84 35.1683 8.01333 35.035 8.2C34.9283 8.36 34.8083 8.52 34.675 8.68C34.435 8.94667 34.315 9.28 34.315 9.68V12.16C34.315 12.2667 34.3017 12.3733 34.275 12.48C34.275 12.56 34.275 12.6533 34.275 12.76C34.2483 12.8933 34.235 13.04 34.235 13.2C34.235 13.3333 34.235 13.4667 34.235 13.6C34.235 13.7333 34.2883 13.7733 34.395 13.72H34.515C34.595 13.6933 34.6617 13.68 34.715 13.68C34.795 13.68 34.8617 13.6667 34.915 13.64C35.315 13.5067 35.715 13.4133 36.115 13.36C36.515 13.28 36.9283 13.2267 37.355 13.2C37.7283 13.1467 38.0883 13.1467 38.435 13.2C38.7817 13.2267 39.1283 13.28 39.475 13.36C39.715 13.44 39.9417 13.5333 40.155 13.64C40.395 13.72 40.6083 13.84 40.795 14C40.9283 14.1067 41.0617 14.2267 41.195 14.36C41.3283 14.4667 41.435 14.5867 41.515 14.72C41.7017 14.9867 41.8483 15.2667 41.955 15.56C42.0883 15.8267 42.155 16.1067 42.155 16.4V16.44C42.2083 16.7067 42.235 16.9733 42.235 17.24C42.235 17.5067 42.2083 17.7733 42.155 18.04C42.1283 18.2 42.1017 18.36 42.075 18.52C42.0483 18.6533 42.0217 18.8 41.995 18.96C41.9417 19.2 41.875 19.44 41.795 19.68C41.7417 19.92 41.6883 20.16 41.635 20.4C41.6083 20.5067 41.5817 20.6133 41.555 20.72C41.555 20.8 41.555 20.8933 41.555 21V23.32C41.555 23.5333 41.5683 23.7467 41.595 23.96C41.6217 24.1733 41.6483 24.3867 41.675 24.6C41.7017 24.7333 41.7283 24.8667 41.755 25C41.8083 25.1333 41.8483 25.2667 41.875 25.4C41.875 25.4533 41.9283 25.5333 42.035 25.64C42.1683 25.7733 42.2483 25.92 42.275 26.08C42.275 26.16 42.2883 26.2133 42.315 26.24C42.4217 26.48 42.475 26.76 42.475 27.08C42.475 27.1867 42.4617 27.2933 42.435 27.4C42.435 27.5067 42.4483 27.6267 42.475 27.76C42.5283 27.92 42.4883 28.0667 42.355 28.2C42.3017 28.2533 42.2617 28.32 42.235 28.4C42.2083 28.48 42.1683 28.56 42.115 28.64C42.035 28.8 41.9283 28.9467 41.795 29.08C41.715 29.1067 41.6483 29.16 41.595 29.24C41.5417 29.32 41.4883 29.3867 41.435 29.44C41.2217 29.68 40.9683 29.76 40.675 29.68C40.6483 29.68 40.6083 29.6667 40.555 29.64C40.5283 29.64 40.5017 29.64 40.475 29.64C40.235 29.6133 40.0217 29.5333 39.835 29.4C39.675 29.2933 39.515 29.16 39.355 29C39.3017 28.92 39.235 28.84 39.155 28.76C39.1017 28.6533 39.035 28.56 38.955 28.48C38.875 28.3733 38.8083 28.2533 38.755 28.12C38.7283 27.9867 38.6883 27.8667 38.635 27.76C38.5283 27.3867 38.4083 27 38.275 26.6C38.1683 26.2 38.0883 25.8 38.035 25.4C37.9817 25.0267 37.915 24.6533 37.835 24.28C37.755 23.88 37.7017 23.48 37.675 23.08C37.6217 22.8667 37.595 22.68 37.595 22.52C37.5417 22.4133 37.515 22.36 37.515 22.36C37.4083 22.4133 37.3417 22.4533 37.315 22.48C37.0483 22.8 36.755 23.12 36.435 23.44C36.115 23.7333 35.8083 24.04 35.515 24.36C35.4617 24.44 35.395 24.52 35.315 24.6C35.2617 24.6533 35.2083 24.7067 35.155 24.76C34.995 24.92 34.835 25.08 34.675 25.24C34.515 25.3733 34.3683 25.52 34.235 25.68C34.1283 25.76 34.035 25.84 33.955 25.92C33.875 26 33.7817 26.0667 33.675 26.12C33.6217 26.1733 33.5683 26.2267 33.515 26.28C33.4617 26.3333 33.4083 26.3867 33.355 26.44C33.2483 26.5467 33.1417 26.6533 33.035 26.76C32.955 26.84 32.8483 26.92 32.715 27L32.555 27.16C32.1283 27.5067 31.7017 27.8133 31.275 28.08C30.8217 28.32 30.595 28.7067 30.595 29.24C30.595 29.4 30.595 29.56 30.595 29.72C30.595 29.88 30.6083 30.04 30.635 30.2C30.635 30.2267 30.635 30.24 30.635 30.24C30.6617 30.24 30.675 30.2533 30.675 30.28C30.7017 30.7867 30.7283 31.2933 30.755 31.8C30.8083 32.3333 30.8217 32.8667 30.795 33.4C30.7683 33.48 30.755 33.5867 30.755 33.72C30.7017 33.96 30.5683 34.16 30.355 34.32ZM30.115 22.96C30.595 23.2 31.0617 23.1867 31.515 22.92C31.595 22.84 31.6617 22.7867 31.715 22.76C31.9283 22.6 32.1283 22.44 32.315 22.28C32.5017 22.0933 32.6883 21.92 32.875 21.76C33.0617 21.6 33.235 21.44 33.395 21.28C33.555 21.0933 33.7283 20.92 33.915 20.76C34.1283 20.5467 34.3417 20.32 34.555 20.08C34.7683 19.84 34.9683 19.6 35.155 19.36C35.2883 19.2 35.395 19.0267 35.475 18.84C35.5817 18.7067 35.6483 18.5467 35.675 18.36C35.675 18.1733 35.595 18.1067 35.435 18.16C35.3017 18.1867 35.1683 18.2133 35.035 18.24C34.9017 18.2667 34.7683 18.3333 34.635 18.44C34.475 18.5467 34.3017 18.6533 34.115 18.76C33.955 18.8667 33.7817 18.9867 33.595 19.12C33.5417 19.1733 33.4883 19.2533 33.435 19.36C33.3817 19.5467 33.3283 19.7733 33.275 20.04C33.275 20.2267 33.2617 20.4 33.235 20.56C33.235 20.72 33.2217 20.88 33.195 21.04C33.115 21.4133 32.9283 21.6533 32.635 21.76C32.4483 21.84 32.2883 21.8267 32.155 21.72C31.9683 21.6133 31.835 21.4667 31.755 21.28C31.7017 21.0933 31.6483 20.9067 31.595 20.72C31.5417 20.5333 31.5017 20.3467 31.475 20.16L31.355 19.4C31.355 19.08 31.2083 18.7467 30.915 18.4C30.8617 18.3467 30.795 18.28 30.715 18.2C30.6617 18.12 30.6083 18.04 30.555 17.96C30.4483 17.8 30.355 17.6267 30.275 17.44C30.2217 17.2533 30.1683 17.0667 30.115 16.88L30.075 16.6C30.1017 16.0933 30.2883 15.6533 30.635 15.28C31.0617 14.8 31.5283 14.4933 32.035 14.36L32.435 14.24C32.595 14.1867 32.6483 14.0933 32.595 13.96C32.5683 13.8267 32.5417 13.6933 32.515 13.56C32.4883 13.4 32.4617 13.2533 32.435 13.12C32.4083 12.8533 32.3817 12.6 32.355 12.36C32.355 12.0933 32.3283 11.8267 32.275 11.56C32.275 11.56 32.275 11.4933 32.275 11.36C32.2483 11.0667 32.2083 10.7733 32.155 10.48C32.1283 10.16 32.0883 9.84 32.035 9.52C31.9817 9.25333 31.875 9.04 31.715 8.88C31.5017 8.66667 31.2617 8.56 30.995 8.56C30.755 8.61333 30.5817 8.68 30.475 8.76C30.2083 8.94667 29.955 9.13333 29.715 9.32C29.475 9.48 29.2083 9.62667 28.915 9.76C28.7283 9.86667 28.595 9.98667 28.515 10.12C28.435 10.3067 28.3417 10.4933 28.235 10.68C28.155 10.84 28.0883 11.0267 28.035 11.24C28.0083 11.3733 27.9683 11.52 27.915 11.68C27.8617 11.8133 27.8083 11.9467 27.755 12.08C27.755 12.1333 27.7417 12.1867 27.715 12.24C27.6883 12.2933 27.6617 12.3467 27.635 12.4C27.555 12.5867 27.4883 12.76 27.435 12.92C27.3817 13.1067 27.3283 13.2933 27.275 13.48C27.2217 13.6667 27.1683 13.8667 27.115 14.08C27.0617 14.2667 27.0083 14.4933 26.955 14.76C26.9017 15.0267 26.8483 15.2933 26.795 15.56C26.7417 15.8267 26.6883 16.0933 26.635 16.36C26.6083 16.4667 26.5817 16.5733 26.555 16.68C26.555 16.76 26.555 16.8667 26.555 17C26.555 17.1067 26.555 17.2267 26.555 17.36C26.555 17.4933 26.5283 17.6267 26.475 17.76C26.475 17.84 26.4617 17.9333 26.435 18.04C26.435 18.12 26.435 18.2 26.435 18.28C26.435 18.36 26.435 18.44 26.435 18.52C26.4617 18.6 26.475 18.7067 26.475 18.84C26.4483 19.0267 26.4483 19.2533 26.475 19.52C26.5017 19.76 26.5283 20 26.555 20.24L26.635 20.56C26.6883 20.72 26.755 20.8933 26.835 21.08C26.915 21.24 27.0083 21.3867 27.115 21.52C27.3817 21.8133 27.635 22.0533 27.875 22.24C28.115 22.4267 28.275 22.5467 28.355 22.6C28.4617 22.6267 28.675 22.64 28.995 22.64C29.235 22.64 29.475 22.68 29.715 22.76C29.8217 22.7867 29.955 22.8533 30.115 22.96ZM61.5031 33.72C61.2365 33.6933 61.0365 33.5333 60.9031 33.24C60.8765 33.2133 60.8631 33.1467 60.8631 33.04C60.8365 32.8267 60.7965 32.6133 60.7431 32.4C60.7165 32.1867 60.7165 31.9733 60.7431 31.76V31.56C60.7165 31.32 60.7031 31.08 60.7031 30.84C60.7031 30.6 60.6898 30.3733 60.6631 30.16C60.6098 29.7067 60.4498 29.36 60.1831 29.12L59.8231 28.76C59.6898 28.6 59.5165 28.5467 59.3031 28.6C59.1431 28.6267 58.9831 28.64 58.8231 28.64C58.6898 28.64 58.5431 28.6267 58.3831 28.6C58.2765 28.6 58.1565 28.6133 58.0231 28.64C57.9165 28.64 57.7965 28.64 57.6631 28.64C57.5565 28.64 57.4365 28.64 57.3031 28.64C57.1965 28.6133 57.0898 28.6133 56.9831 28.64C56.8765 28.6667 56.7698 28.68 56.6631 28.68C56.5831 28.68 56.5031 28.68 56.4231 28.68H55.0631C54.7698 28.68 54.4631 28.72 54.1431 28.8L53.1831 29.04C52.8631 29.1467 52.5431 29.2267 52.2231 29.28C52.1165 29.3067 52.0098 29.3333 51.9031 29.36C51.7965 29.3867 51.6898 29.4267 51.5831 29.48C51.1831 29.6667 50.7965 29.7733 50.4231 29.8C50.1831 29.8533 50.0098 29.96 49.9031 30.12L49.7031 30.36C49.6498 30.3867 49.5965 30.4133 49.5431 30.44C49.4898 30.4933 49.4365 30.5467 49.3831 30.6C49.1965 30.7067 48.9965 30.7067 48.7831 30.6C48.5431 30.4667 48.3965 30.32 48.3431 30.16C48.3431 30.1333 48.3298 30.1067 48.3031 30.08C48.3031 30.08 48.3031 30.0667 48.3031 30.04C48.1165 29.5867 47.8098 29.1867 47.3831 28.84C47.2765 28.76 47.1831 28.6667 47.1031 28.56C47.0765 28.48 47.0365 28.4133 46.9831 28.36C46.9298 28.28 46.8765 28.2133 46.8231 28.16L46.5831 27.8C46.4765 27.6133 46.4365 27.4 46.4631 27.16C46.4898 27.0267 46.5031 26.8933 46.5031 26.76C46.5298 26.6 46.5565 26.4533 46.5831 26.32V26.08C46.5831 25.7867 46.5831 25.4933 46.5831 25.2C46.5831 24.88 46.5965 24.5867 46.6231 24.32V23.92C46.6765 23.8133 46.6898 23.72 46.6631 23.64C46.6631 23.5333 46.6631 23.4267 46.6631 23.32C46.6898 22.9733 46.6898 22.64 46.6631 22.32C46.6631 21.9733 46.6765 21.6267 46.7031 21.28L46.8231 19.48C46.8498 19.1867 46.8631 18.9067 46.8631 18.64C46.8898 18.3733 46.9031 18.1067 46.9031 17.84V17.72C46.9565 17.4 46.9831 17.08 46.9831 16.76C46.9831 16.44 46.9831 16.1067 46.9831 15.76V13C46.9565 12.7067 46.9298 12.4133 46.9031 12.12C46.9031 11.8267 46.9031 11.5333 46.9031 11.24C46.9031 10.92 46.8898 10.6 46.8631 10.28C46.8365 9.93333 46.7965 9.58667 46.7431 9.24C46.7165 9.02667 46.6765 8.8 46.6231 8.56C46.5965 8.32 46.5831 8.08 46.5831 7.84C46.5831 7.78667 46.5698 7.73333 46.5431 7.68C46.5431 7.62667 46.5431 7.57333 46.5431 7.52C46.3831 6.8 46.3031 6.06667 46.3031 5.32V3.64C46.3031 3.45333 46.3031 3.28 46.3031 3.12C46.3298 2.93333 46.3565 2.74667 46.3831 2.56C46.4365 2.24 46.5431 2 46.7031 1.84L46.9031 1.6C47.0631 1.38667 47.2498 1.24 47.4631 1.16C47.6765 1.05333 47.9031 0.986665 48.1431 0.959999H48.4231C48.8231 0.959999 49.1431 1.10666 49.3831 1.4C49.4365 1.42667 49.4765 1.45333 49.5031 1.48C49.5298 1.50667 49.5565 1.53333 49.5831 1.56C49.7165 1.66666 49.7965 1.78666 49.8231 1.92C49.9565 2.18666 50.0231 2.36 50.0231 2.44C50.0498 2.52 50.0631 2.70667 50.0631 3V3.28C50.0631 3.46667 50.0631 3.65333 50.0631 3.84C50.0631 4 50.0765 4.17333 50.1031 4.36C50.1298 4.41333 50.1431 4.49333 50.1431 4.6C50.1431 4.78667 50.1431 4.97333 50.1431 5.16C50.1698 5.34667 50.1965 5.53333 50.2231 5.72C50.2498 5.98667 50.2765 6.25333 50.3031 6.52C50.3298 6.76 50.3431 7.02667 50.3431 7.32C50.3431 7.37333 50.3431 7.44 50.3431 7.52C50.3698 7.57333 50.3831 7.62667 50.3831 7.68C50.3831 7.70667 50.3831 7.74667 50.3831 7.8C50.4098 7.82667 50.4231 7.86667 50.4231 7.92L50.5431 9.96C50.5698 10.0933 50.5831 10.24 50.5831 10.4C50.5831 10.5333 50.5831 10.68 50.5831 10.84C50.6098 10.8667 50.6231 10.9333 50.6231 11.04C50.5965 11.1733 50.5831 11.32 50.5831 11.48C50.5831 11.6133 50.5965 11.7467 50.6231 11.88V14.52C50.5965 14.68 50.5965 14.84 50.6231 15V15.24C50.5965 15.4533 50.5831 15.68 50.5831 15.92C50.5831 16.1333 50.5698 16.36 50.5431 16.6C50.5431 16.7867 50.5431 16.9867 50.5431 17.2C50.5431 17.3867 50.5298 17.5867 50.5031 17.8C50.4765 17.9067 50.4631 18.0267 50.4631 18.16C50.4631 18.2933 50.4631 18.4267 50.4631 18.56C50.4631 18.6667 50.4498 18.8 50.4231 18.96C50.4231 19.0933 50.4098 19.2267 50.3831 19.36V19.48C50.3565 19.7467 50.3298 20.0133 50.3031 20.28C50.3031 20.5467 50.2898 20.8267 50.2631 21.12C50.2365 21.2533 50.2231 21.4 50.2231 21.56C50.2231 21.72 50.2098 21.88 50.1831 22.04C50.1565 22.1467 50.1431 22.28 50.1431 22.44C50.1431 22.5733 50.1431 22.7067 50.1431 22.84C50.1431 22.9733 50.1298 23.1067 50.1031 23.24C50.0765 23.5333 50.0631 23.8267 50.0631 24.12C50.0631 24.3867 50.0631 24.6667 50.0631 24.96V25C50.1165 25.1333 50.1831 25.2 50.2631 25.2L51.0631 25.32C51.7031 25.4 52.3298 25.44 52.9431 25.44C53.1031 25.44 53.2365 25.4267 53.3431 25.4C53.4765 25.3733 53.6231 25.36 53.7831 25.36C53.9431 25.36 54.0898 25.3467 54.2231 25.32H55.3431C55.5298 25.32 55.7165 25.3067 55.9031 25.28C56.0898 25.2267 56.2765 25.1867 56.4631 25.16H56.6631C56.9565 25.16 57.2498 25.1467 57.5431 25.12C57.8365 25.0667 58.1298 25.04 58.4231 25.04H59.7431C60.1165 25.04 60.4365 24.96 60.7031 24.8C60.9165 24.72 61.1165 24.6667 61.3031 24.64C61.5165 24.6133 61.7298 24.5867 61.9431 24.56C62.2631 24.56 62.5431 24.64 62.7831 24.8C63.3165 25.12 63.6631 25.56 63.8231 26.12C63.8765 26.3067 63.9031 26.5067 63.9031 26.72C63.9298 26.9333 63.9298 27.1467 63.9031 27.36C63.8765 27.6 63.8231 27.8267 63.7431 28.04C63.6631 28.2267 63.5565 28.4267 63.4231 28.64L63.0631 29.16C62.9031 29.4533 62.7831 29.7467 62.7031 30.04C62.6765 30.28 62.6365 30.5067 62.5831 30.72C62.5298 30.96 62.5031 31.2 62.5031 31.44C62.5031 31.5467 62.4898 31.6533 62.4631 31.76C62.4631 31.8667 62.4631 31.9733 62.4631 32.08C62.4365 32.1867 62.4231 32.28 62.4231 32.36C62.4231 32.44 62.4231 32.5333 62.4231 32.64C62.4231 32.8533 62.3565 33.0933 62.2231 33.36C62.0631 33.6267 61.8231 33.7467 61.5031 33.72Z" fill="white"/>
</svg>
