<svg width="102" height="56" viewBox="0 0 102 56" fill="none" xmlns="http://www.w3.org/2000/svg">
<path d="M3.12 55.56C2.65067 55.7307 2.30933 55.6027 2.096 55.176C1.88267 54.8773 1.73333 54.5147 1.648 54.088C1.648 53.9173 1.62667 53.7467 1.584 53.576C1.584 53.448 1.584 53.2987 1.584 53.128C1.54133 53.0427 1.52 52.9573 1.52 52.872C1.56267 52.5307 1.584 52.2107 1.584 51.912C1.584 51.6133 1.60533 51.3147 1.648 51.016C1.648 50.4187 1.648 49.8 1.648 49.16C1.69067 48.5627 1.69067 47.944 1.648 47.304C1.648 46.792 1.49867 46.2373 1.2 45.64C0.944 45.0853 0.752 44.4667 0.624 43.784C0.581333 43.5707 0.56 43.3787 0.56 43.208C0.56 43.0373 0.56 42.8667 0.56 42.696C0.645334 42.2267 0.709333 41.7573 0.752 41.288C0.794667 40.776 0.837334 40.2853 0.88 39.816C0.965333 39.3467 1.008 38.8773 1.008 38.408C1.05067 37.9387 1.09333 37.4907 1.136 37.064C1.17867 36.5947 1.22133 36.1467 1.264 35.72C1.34933 35.2507 1.37067 34.7813 1.328 34.312C1.41333 33.8427 1.456 33.3947 1.456 32.968C1.49867 32.4987 1.54133 32.0507 1.584 31.624C1.66933 31.2827 1.69067 30.9627 1.648 30.664C1.648 30.3227 1.62667 30.0027 1.584 29.704C1.54133 29.4907 1.52 29.32 1.52 29.192C1.56267 29.0213 1.584 28.8507 1.584 28.68C1.62667 28.4667 1.648 28.2533 1.648 28.04C1.648 27.784 1.66933 27.5707 1.712 27.4V24.904C1.66933 24.3493 1.648 23.816 1.648 23.304C1.69067 22.7493 1.712 22.1947 1.712 21.64C1.66933 21.2133 1.648 20.7867 1.648 20.36C1.69067 19.8907 1.73333 19.4427 1.776 19.016C1.81867 18.888 1.84 18.76 1.84 18.632C1.84 18.504 1.84 18.3973 1.84 18.312V16.136C1.84 15.88 1.86133 15.688 1.904 15.56V14.728C1.81867 14.6 1.81867 14.4293 1.904 14.216C1.98933 13.832 1.98933 13.448 1.904 13.064C1.86133 12.9787 1.84 12.8933 1.84 12.808C1.88267 12.68 1.904 12.552 1.904 12.424C1.904 12.2107 1.904 12.0187 1.904 11.848C1.94667 11.6347 1.968 11.4213 1.968 11.208C1.968 11.0373 1.968 10.8667 1.968 10.696C2.01067 10.4827 2.05333 10.2907 2.096 10.12V9.864C2.096 9.52266 2.11733 9.18133 2.16 8.84C2.20267 8.456 2.24533 8.11467 2.288 7.816L2.672 5.32C2.75733 4.89333 2.84267 4.488 2.928 4.104C3.056 3.72 3.20533 3.336 3.376 2.952C3.632 2.184 4.10133 1.48 4.784 0.839996C4.99733 0.669332 5.21067 0.519999 5.424 0.391998C5.68 0.263997 5.95733 0.199997 6.256 0.199997C6.29867 0.157331 6.36267 0.135998 6.448 0.135998C6.74667 0.0506655 7.024 0.0293325 7.28 0.0719986C7.536 0.114665 7.792 0.178664 8.048 0.263996C8.64533 0.391997 9.09333 0.711998 9.392 1.224C9.60533 1.52266 9.712 1.8 9.712 2.056C9.712 2.26933 9.73333 2.44 9.776 2.568C9.904 3.12266 9.94667 3.63466 9.904 4.104C9.904 4.27466 9.904 4.44533 9.904 4.616C9.94667 4.78666 9.98933 4.97866 10.032 5.192C10.1173 5.40533 10.16 5.64 10.16 5.896C10.16 6.10933 10.16 6.32267 10.16 6.536C10.16 6.83466 10.1387 7.13333 10.096 7.432C10.0533 7.688 10.0107 7.96533 9.968 8.264C9.92533 8.43466 9.88267 8.62666 9.84 8.84C9.84 9.01066 9.79733 9.20266 9.712 9.416C9.66933 9.71466 9.60533 10.0133 9.52 10.312C9.47733 10.6107 9.43467 10.9093 9.392 11.208V11.464C9.30667 11.8907 9.24267 12.3387 9.2 12.808C9.15733 13.2347 9.09333 13.6613 9.008 14.088C8.96533 14.216 8.944 14.344 8.944 14.472C8.944 14.6 8.944 14.7067 8.944 14.792C8.944 14.92 8.944 15.048 8.944 15.176C8.944 15.304 8.92267 15.432 8.88 15.56C8.83733 15.816 8.816 16.072 8.816 16.328C8.816 16.584 8.79467 16.8613 8.752 17.16C8.752 17.2027 8.752 17.224 8.752 17.224C8.79467 17.224 8.816 17.2453 8.816 17.288C8.816 17.3307 8.83733 17.3733 8.88 17.416C8.96533 17.4587 9.02933 17.4587 9.072 17.416C9.24267 17.3307 9.392 17.224 9.52 17.096C9.98933 16.712 10.48 16.328 10.992 15.944C11.504 15.56 12.016 15.176 12.528 14.792C12.9973 14.4507 13.4667 14.1093 13.936 13.768C14.4053 13.4267 14.8747 13.0853 15.344 12.744C15.3867 12.744 15.4293 12.7227 15.472 12.68C15.8987 12.3387 16.304 11.9973 16.688 11.656C17.1147 11.3147 17.52 10.9733 17.904 10.632C18.3733 10.2053 18.8213 9.77866 19.248 9.352C19.7173 8.92533 20.144 8.47733 20.528 8.008C20.6133 7.92266 20.6987 7.83733 20.784 7.752C20.8693 7.66666 20.9547 7.58133 21.04 7.496L23.152 5.192C23.4933 4.808 23.9413 4.40266 24.496 3.976C24.7093 3.80533 24.944 3.69866 25.2 3.656C25.2853 3.656 25.3493 3.656 25.392 3.656C25.4347 3.61333 25.4773 3.61333 25.52 3.656C25.7333 3.656 25.9253 3.67733 26.096 3.72C26.2667 3.72 26.4373 3.74133 26.608 3.784C26.736 3.82667 26.928 3.848 27.184 3.848C27.3973 3.76266 27.5467 3.82666 27.632 4.04C27.632 4.08266 27.6747 4.104 27.76 4.104C27.8027 4.104 27.9093 4.06133 28.08 3.976C28.208 3.976 28.272 4.01866 28.272 4.104C28.4 4.36 28.592 4.552 28.848 4.68C28.848 4.72267 28.848 4.744 28.848 4.744C28.8907 4.744 28.912 4.744 28.912 4.744V4.936C28.912 5.14933 28.9973 5.27733 29.168 5.32C29.2107 5.32 29.232 5.34133 29.232 5.384C29.2747 5.384 29.296 5.384 29.296 5.384C29.3813 5.42666 29.4667 5.53333 29.552 5.704C29.552 6.00266 29.616 6.32266 29.744 6.664C30 7.38933 29.9787 8.09333 29.68 8.776C29.3813 9.544 28.9547 10.2907 28.4 11.016L26.8 13.128C26.6293 13.3413 26.4373 13.5547 26.224 13.768C26.0107 13.9813 25.7973 14.1733 25.584 14.344C25.3707 14.5573 25.2213 14.728 25.136 14.856C25.0507 14.9413 24.9653 15.0267 24.88 15.112C24.7947 15.1973 24.7093 15.2827 24.624 15.368C24.4107 15.6667 24.1547 15.9013 23.856 16.072C23.6427 16.2427 23.408 16.4133 23.152 16.584C22.896 16.712 22.6613 16.8827 22.448 17.096C22.2347 17.2667 21.9787 17.416 21.68 17.544C21.424 17.6293 21.168 17.7147 20.912 17.8C20.6987 17.928 20.4427 17.9493 20.144 17.864H20.08C19.5253 17.6933 18.9493 17.8 18.352 18.184C18.224 18.2693 18.0747 18.3547 17.904 18.44C17.776 18.5253 17.6267 18.6107 17.456 18.696C17.1573 18.952 16.816 19.1867 16.432 19.4C16.2613 19.4853 16.112 19.592 15.984 19.72C15.856 19.8053 15.728 19.8907 15.6 19.976C15.2587 20.232 14.896 20.488 14.512 20.744C14.128 20.9573 13.7653 21.192 13.424 21.448L12.144 22.216C12.016 22.3013 11.8667 22.408 11.696 22.536C11.568 22.6213 11.4187 22.728 11.248 22.856C11.1627 22.9413 11.1627 23.0267 11.248 23.112L12.016 23.688C12.5707 23.9867 13.104 24.328 13.616 24.712C14.128 25.0533 14.64 25.416 15.152 25.8C15.6213 26.1413 16.0693 26.504 16.496 26.888C16.9653 27.2293 17.4347 27.5707 17.904 27.912C17.9893 27.9547 18.0747 28.0187 18.16 28.104C18.288 28.1893 18.3733 28.2747 18.416 28.36C18.8853 28.744 19.312 29.128 19.696 29.512C20.1227 29.8533 20.5493 30.216 20.976 30.6C21.7013 31.2827 22.448 31.944 23.216 32.584C23.984 33.1813 24.7093 33.8427 25.392 34.568L25.968 35.144C26.224 35.4427 26.48 35.72 26.736 35.976C27.0347 36.1893 27.3333 36.424 27.632 36.68C27.888 36.808 28.08 36.9787 28.208 37.192L28.4 37.384C28.6987 37.6827 28.8907 38.0027 28.976 38.344C29.0613 38.6853 29.0827 39.0693 29.04 39.496L28.976 39.944C29.0187 40.2427 28.9333 40.4773 28.72 40.648C28.592 40.6907 28.528 40.8613 28.528 41.16C28.528 41.3307 28.4427 41.416 28.272 41.416C28.1013 41.4587 27.952 41.544 27.824 41.672C27.5253 41.928 27.1627 42.12 26.736 42.248L26.224 42.44C26.0533 42.5253 25.9253 42.5467 25.84 42.504C25.6693 42.4187 25.4773 42.3333 25.264 42.248C25.0507 42.1627 24.8373 42.0987 24.624 42.056C24.5387 42.0133 24.4107 41.9067 24.24 41.736C24.0267 41.5227 23.8133 41.3093 23.6 41.096C23.3867 40.84 23.1733 40.584 22.96 40.328C22.6613 39.9867 22.3413 39.6453 22 39.304C21.6587 38.9627 21.3173 38.6427 20.976 38.344L18.928 36.616C18.4587 36.1467 17.968 35.72 17.456 35.336C16.944 34.952 16.4107 34.5467 15.856 34.12C15.7707 34.0347 15.5787 33.9493 15.28 33.864C15.152 33.864 15.024 33.8427 14.896 33.8C14.768 33.7147 14.64 33.6507 14.512 33.608C14.2133 33.48 13.9147 33.352 13.616 33.224C13.36 33.096 13.0827 32.9467 12.784 32.776C12.528 32.6053 12.272 32.4347 12.016 32.264C11.76 32.0933 11.504 31.9227 11.248 31.752C10.9493 31.496 10.608 31.2613 10.224 31.048C9.88267 30.792 9.54133 30.5573 9.2 30.344C9.15733 30.3013 9.09333 30.28 9.008 30.28C8.96533 30.28 8.90133 30.2587 8.816 30.216C8.64533 30.1307 8.51733 30.1947 8.432 30.408C8.34667 30.4933 8.26133 30.664 8.176 30.92L7.984 31.944C7.94133 32.328 7.87733 32.7333 7.792 33.16C7.74933 33.544 7.70667 33.928 7.664 34.312C7.62133 34.6107 7.57867 34.9093 7.536 35.208C7.49333 35.464 7.45067 35.72 7.408 35.976C7.36533 36.232 7.32267 36.488 7.28 36.744C7.23733 37 7.17333 37.256 7.088 37.512C7.04533 37.6827 7.024 37.8747 7.024 38.088C7.024 38.2587 7.024 38.4507 7.024 38.664V40.776C7.024 41.288 6.98133 41.8 6.896 42.312C6.81067 42.7813 6.72533 43.2507 6.64 43.72C6.512 44.5733 6.192 45.2773 5.68 45.832C5.38133 46.2587 5.168 46.7493 5.04 47.304C4.86933 48.072 4.74133 48.8827 4.656 49.736C4.61333 49.9067 4.592 50.0773 4.592 50.248C4.592 50.4613 4.57067 50.6747 4.528 50.888C4.48533 51.0587 4.464 51.2507 4.464 51.464C4.464 51.72 4.44267 51.9547 4.4 52.168C4.35733 52.5093 4.31467 52.8507 4.272 53.192C4.272 53.576 4.22933 53.9387 4.144 54.28C4.10133 54.5787 3.97333 54.856 3.76 55.112C3.58933 55.3253 3.376 55.4747 3.12 55.56ZM48.168 53.512C47.4853 53.9387 46.9307 53.7893 46.504 53.064C46.3333 52.808 46.248 52.5733 46.248 52.36L46.056 51.464C46.0133 50.824 45.928 50.184 45.8 49.544C45.672 48.904 45.5227 48.2427 45.352 47.56C45.352 47.4747 45.3307 47.3893 45.288 47.304C45.288 47.2613 45.288 47.1973 45.288 47.112C45.288 46.9413 45.2667 46.8133 45.224 46.728C45.096 46.088 44.7547 45.6187 44.2 45.32C43.816 45.1067 43.4107 44.9147 42.984 44.744C42.6 44.5307 42.1947 44.3387 41.768 44.168L40.168 43.4C39.8267 43.2293 39.5067 42.952 39.208 42.568C38.7387 42.056 38.312 41.5227 37.928 40.968C37.544 40.4133 37.224 39.816 36.968 39.176C36.8827 38.92 36.776 38.664 36.648 38.408C36.5627 38.152 36.4773 37.896 36.392 37.64C36.3067 37.4267 36.2427 37.2133 36.2 37C36.1573 36.7867 36.0933 36.5947 36.008 36.424L35.624 35.08C35.5387 34.9093 35.496 34.7387 35.496 34.568C35.4533 34.2693 35.4107 33.992 35.368 33.736C35.368 33.4373 35.3253 33.1387 35.24 32.84C35.1973 32.5413 35.1547 32.2427 35.112 31.944C35.112 31.6453 35.112 31.3467 35.112 31.048C35.112 30.8773 35.0907 30.7493 35.048 30.664C35.0053 30.0667 34.984 29.4907 34.984 28.936C34.984 28.3813 34.9627 27.8267 34.92 27.272C34.92 26.9307 34.92 26.5893 34.92 26.248C34.92 25.9067 34.9413 25.5867 34.984 25.288L35.176 22.984C35.176 22.856 35.176 22.7493 35.176 22.664C35.2187 22.536 35.24 22.4293 35.24 22.344C35.2827 21.7893 35.3253 21.256 35.368 20.744C35.4533 20.232 35.56 19.72 35.688 19.208C35.7733 19.08 35.816 18.952 35.816 18.824C35.816 18.696 35.816 18.568 35.816 18.44C35.944 17.9707 36.0507 17.5013 36.136 17.032C36.264 16.52 36.3707 16.008 36.456 15.496L36.84 13.384C36.9253 13.0427 36.9893 12.7013 37.032 12.36C37.1173 12.0187 37.2027 11.6773 37.288 11.336C37.6293 9.88533 38.2267 8.648 39.08 7.624C39.592 6.89867 40.1893 6.32267 40.872 5.896C41.384 5.55467 41.896 5.21333 42.408 4.872C42.9627 4.53066 43.5173 4.232 44.072 3.976C44.6693 3.63466 45.288 3.336 45.928 3.08C46.568 2.824 47.2293 2.58933 47.912 2.376C48.2107 2.29066 48.488 2.20533 48.744 2.12C49.0427 2.03466 49.3413 1.97066 49.64 1.928C50.152 1.8 50.664 1.75733 51.176 1.8C51.688 1.8 52.1787 1.90667 52.648 2.12C53.2453 2.33333 53.7573 2.61067 54.184 2.952C54.3973 3.12266 54.6107 3.29333 54.824 3.464C55.08 3.592 55.2933 3.76266 55.464 3.976C56.36 4.616 56.936 5.49066 57.192 6.6C57.2347 6.77067 57.2773 6.94133 57.32 7.112C57.3627 7.24 57.384 7.41066 57.384 7.624C57.4267 8.392 57.2987 9.11733 57 9.8C56.9147 9.97067 56.808 10.1627 56.68 10.376C56.5947 10.5467 56.4667 10.7173 56.296 10.888C56.0827 11.144 55.8693 11.4213 55.656 11.72C55.4853 11.976 55.2933 12.232 55.08 12.488C54.696 12.9147 54.504 13.448 54.504 14.088V18.056C54.504 18.2267 54.4827 18.3973 54.44 18.568C54.44 18.696 54.44 18.8453 54.44 19.016C54.3973 19.2293 54.376 19.464 54.376 19.72C54.376 19.9333 54.376 20.1467 54.376 20.36C54.376 20.5733 54.4613 20.6373 54.632 20.552H54.824C54.952 20.5093 55.0587 20.488 55.144 20.488C55.272 20.488 55.3787 20.4667 55.464 20.424C56.104 20.2107 56.744 20.0613 57.384 19.976C58.024 19.848 58.6853 19.7627 59.368 19.72C59.9653 19.6347 60.5413 19.6347 61.096 19.72C61.6507 19.7627 62.2053 19.848 62.76 19.976C63.144 20.104 63.5067 20.2533 63.848 20.424C64.232 20.552 64.5733 20.744 64.872 21C65.0853 21.1707 65.2987 21.3627 65.512 21.576C65.7253 21.7467 65.896 21.9387 66.024 22.152C66.3227 22.5787 66.5573 23.0267 66.728 23.496C66.9413 23.9227 67.048 24.3707 67.048 24.84V24.904C67.1333 25.3307 67.176 25.7573 67.176 26.184C67.176 26.6107 67.1333 27.0373 67.048 27.464C67.0053 27.72 66.9627 27.976 66.92 28.232C66.8773 28.4453 66.8347 28.68 66.792 28.936C66.7067 29.32 66.6 29.704 66.472 30.088C66.3867 30.472 66.3013 30.856 66.216 31.24C66.1733 31.4107 66.1307 31.5813 66.088 31.752C66.088 31.88 66.088 32.0293 66.088 32.2V35.912C66.088 36.2533 66.1093 36.5947 66.152 36.936C66.1947 37.2773 66.2373 37.6187 66.28 37.96C66.3227 38.1733 66.3653 38.3867 66.408 38.6C66.4933 38.8133 66.5573 39.0267 66.6 39.24C66.6 39.3253 66.6853 39.4533 66.856 39.624C67.0693 39.8373 67.1973 40.072 67.24 40.328C67.24 40.456 67.2613 40.5413 67.304 40.584C67.4747 40.968 67.56 41.416 67.56 41.928C67.56 42.0987 67.5387 42.2693 67.496 42.44C67.496 42.6107 67.5173 42.8027 67.56 43.016C67.6453 43.272 67.5813 43.5067 67.368 43.72C67.2827 43.8053 67.2187 43.912 67.176 44.04C67.1333 44.168 67.0693 44.296 66.984 44.424C66.856 44.68 66.6853 44.9147 66.472 45.128C66.344 45.1707 66.2373 45.256 66.152 45.384C66.0667 45.512 65.9813 45.6187 65.896 45.704C65.5547 46.088 65.1493 46.216 64.68 46.088C64.6373 46.088 64.5733 46.0667 64.488 46.024C64.4453 46.024 64.4027 46.024 64.36 46.024C63.976 45.9813 63.6347 45.8533 63.336 45.64C63.08 45.4693 62.824 45.256 62.568 45C62.4827 44.872 62.376 44.744 62.248 44.616C62.1627 44.4453 62.056 44.296 61.928 44.168C61.8 43.9973 61.6933 43.8053 61.608 43.592C61.5653 43.3787 61.5013 43.1867 61.416 43.016C61.2453 42.4187 61.0533 41.8 60.84 41.16C60.6693 40.52 60.5413 39.88 60.456 39.24C60.3707 38.6427 60.264 38.0453 60.136 37.448C60.008 36.808 59.9227 36.168 59.88 35.528C59.7947 35.1867 59.752 34.888 59.752 34.632C59.6667 34.4613 59.624 34.376 59.624 34.376C59.4533 34.4613 59.3467 34.5253 59.304 34.568C58.8773 35.08 58.408 35.592 57.896 36.104C57.384 36.5733 56.8933 37.064 56.424 37.576C56.3387 37.704 56.232 37.832 56.104 37.96C56.0187 38.0453 55.9333 38.1307 55.848 38.216C55.592 38.472 55.336 38.728 55.08 38.984C54.824 39.1973 54.5893 39.432 54.376 39.688C54.2053 39.816 54.056 39.944 53.928 40.072C53.8 40.2 53.6507 40.3067 53.48 40.392C53.3947 40.4773 53.3093 40.5627 53.224 40.648C53.1387 40.7333 53.0533 40.8187 52.968 40.904C52.7973 41.0747 52.6267 41.2453 52.456 41.416C52.328 41.544 52.1573 41.672 51.944 41.8L51.688 42.056C51.0053 42.6107 50.3227 43.1013 49.64 43.528C48.9147 43.912 48.552 44.5307 48.552 45.384C48.552 45.64 48.552 45.896 48.552 46.152C48.552 46.408 48.5733 46.664 48.616 46.92C48.616 46.9627 48.616 46.984 48.616 46.984C48.6587 46.984 48.68 47.0053 48.68 47.048C48.7227 47.8587 48.7653 48.6693 48.808 49.48C48.8933 50.3333 48.9147 51.1867 48.872 52.04C48.8293 52.168 48.808 52.3387 48.808 52.552C48.7227 52.936 48.5093 53.256 48.168 53.512ZM47.784 35.336C48.552 35.72 49.2987 35.6987 50.024 35.272C50.152 35.144 50.2587 35.0587 50.344 35.016C50.6853 34.76 51.0053 34.504 51.304 34.248C51.6027 33.9493 51.9013 33.672 52.2 33.416C52.4987 33.16 52.776 32.904 53.032 32.648C53.288 32.3493 53.5653 32.072 53.864 31.816C54.2053 31.4747 54.5467 31.112 54.888 30.728C55.2293 30.344 55.5493 29.96 55.848 29.576C56.0613 29.32 56.232 29.0427 56.36 28.744C56.5307 28.5307 56.6373 28.2747 56.68 27.976C56.68 27.6773 56.552 27.5707 56.296 27.656C56.0827 27.6987 55.8693 27.7413 55.656 27.784C55.4427 27.8267 55.2293 27.9333 55.016 28.104C54.76 28.2747 54.4827 28.4453 54.184 28.616C53.928 28.7867 53.6507 28.9787 53.352 29.192C53.2667 29.2773 53.1813 29.4053 53.096 29.576C53.0107 29.8747 52.9253 30.2373 52.84 30.664C52.84 30.9627 52.8187 31.24 52.776 31.496C52.776 31.752 52.7547 32.008 52.712 32.264C52.584 32.8613 52.2853 33.2453 51.816 33.416C51.5173 33.544 51.2613 33.5227 51.048 33.352C50.7493 33.1813 50.536 32.9467 50.408 32.648C50.3227 32.3493 50.2373 32.0507 50.152 31.752C50.0667 31.4533 50.0027 31.1547 49.96 30.856L49.768 29.64C49.768 29.128 49.5333 28.5947 49.064 28.04C48.9787 27.9547 48.872 27.848 48.744 27.72C48.6587 27.592 48.5733 27.464 48.488 27.336C48.3173 27.08 48.168 26.8027 48.04 26.504C47.9547 26.2053 47.8693 25.9067 47.784 25.608L47.72 25.16C47.7627 24.3493 48.0613 23.6453 48.616 23.048C49.2987 22.28 50.0453 21.7893 50.856 21.576L51.496 21.384C51.752 21.2987 51.8373 21.1493 51.752 20.936C51.7093 20.7227 51.6667 20.5093 51.624 20.296C51.5813 20.04 51.5387 19.8053 51.496 19.592C51.4533 19.1653 51.4107 18.76 51.368 18.376C51.368 17.9493 51.3253 17.5227 51.24 17.096C51.24 17.096 51.24 16.9893 51.24 16.776C51.1973 16.3067 51.1333 15.8373 51.048 15.368C51.0053 14.856 50.9413 14.344 50.856 13.832C50.7707 13.4053 50.6 13.064 50.344 12.808C50.0027 12.4667 49.6187 12.296 49.192 12.296C48.808 12.3813 48.5307 12.488 48.36 12.616C47.9333 12.9147 47.528 13.2133 47.144 13.512C46.76 13.768 46.3333 14.0027 45.864 14.216C45.5653 14.3867 45.352 14.5787 45.224 14.792C45.096 15.0907 44.9467 15.3893 44.776 15.688C44.648 15.944 44.5413 16.2427 44.456 16.584C44.4133 16.7973 44.3493 17.032 44.264 17.288C44.1787 17.5013 44.0933 17.7147 44.008 17.928C44.008 18.0133 43.9867 18.0987 43.944 18.184C43.9013 18.2693 43.8587 18.3547 43.816 18.44C43.688 18.7387 43.5813 19.016 43.496 19.272C43.4107 19.5707 43.3253 19.8693 43.24 20.168C43.1547 20.4667 43.0693 20.7867 42.984 21.128C42.8987 21.4267 42.8133 21.7893 42.728 22.216C42.6427 22.6427 42.5573 23.0693 42.472 23.496C42.3867 23.9227 42.3013 24.3493 42.216 24.776C42.1733 24.9467 42.1307 25.1173 42.088 25.288C42.088 25.416 42.088 25.5867 42.088 25.8C42.088 25.9707 42.088 26.1627 42.088 26.376C42.088 26.5893 42.0453 26.8027 41.96 27.016C41.96 27.144 41.9387 27.2933 41.896 27.464C41.896 27.592 41.896 27.72 41.896 27.848C41.896 27.976 41.896 28.104 41.896 28.232C41.9387 28.36 41.96 28.5307 41.96 28.744C41.9173 29.0427 41.9173 29.4053 41.96 29.832C42.0027 30.216 42.0453 30.6 42.088 30.984L42.216 31.496C42.3013 31.752 42.408 32.0293 42.536 32.328C42.664 32.584 42.8133 32.8187 42.984 33.032C43.4107 33.5013 43.816 33.8853 44.2 34.184C44.584 34.4827 44.84 34.6747 44.968 34.76C45.1387 34.8027 45.48 34.824 45.992 34.824C46.376 34.824 46.76 34.888 47.144 35.016C47.3147 35.0587 47.528 35.1653 47.784 35.336ZM98.005 52.552C97.5783 52.5093 97.2583 52.2533 97.045 51.784C97.0023 51.7413 96.981 51.6347 96.981 51.464C96.9383 51.1227 96.8743 50.7813 96.789 50.44C96.7463 50.0987 96.7463 49.7573 96.789 49.416V49.096C96.7463 48.712 96.725 48.328 96.725 47.944C96.725 47.56 96.7037 47.1973 96.661 46.856C96.5757 46.1307 96.3197 45.576 95.893 45.192L95.317 44.616C95.1037 44.36 94.8263 44.2747 94.485 44.36C94.229 44.4027 93.973 44.424 93.717 44.424C93.5037 44.424 93.269 44.4027 93.013 44.36C92.8423 44.36 92.6503 44.3813 92.437 44.424C92.2663 44.424 92.0743 44.424 91.861 44.424C91.6903 44.424 91.4983 44.424 91.285 44.424C91.1143 44.3813 90.9437 44.3813 90.773 44.424C90.6023 44.4667 90.4317 44.488 90.261 44.488C90.133 44.488 90.005 44.488 89.877 44.488H87.701C87.2317 44.488 86.741 44.552 86.229 44.68L84.693 45.064C84.181 45.2347 83.669 45.3627 83.157 45.448C82.9863 45.4907 82.8157 45.5333 82.645 45.576C82.4743 45.6187 82.3037 45.6827 82.133 45.768C81.493 46.0667 80.8743 46.2373 80.277 46.28C79.893 46.3653 79.6157 46.536 79.445 46.792L79.125 47.176C79.0397 47.2187 78.9543 47.2613 78.869 47.304C78.7837 47.3893 78.6983 47.4747 78.613 47.56C78.3143 47.7307 77.9943 47.7307 77.653 47.56C77.269 47.3467 77.0343 47.112 76.949 46.856C76.949 46.8133 76.9277 46.7707 76.885 46.728C76.885 46.728 76.885 46.7067 76.885 46.664C76.5863 45.9387 76.0957 45.2987 75.413 44.744C75.2423 44.616 75.093 44.4667 74.965 44.296C74.9223 44.168 74.8583 44.0613 74.773 43.976C74.6877 43.848 74.6023 43.7413 74.517 43.656L74.133 43.08C73.9623 42.7813 73.8983 42.44 73.941 42.056C73.9837 41.8427 74.005 41.6293 74.005 41.416C74.0477 41.16 74.0903 40.9253 74.133 40.712V40.328C74.133 39.8587 74.133 39.3893 74.133 38.92C74.133 38.408 74.1543 37.9387 74.197 37.512V36.872C74.2823 36.7013 74.3037 36.552 74.261 36.424C74.261 36.2533 74.261 36.0827 74.261 35.912C74.3037 35.3573 74.3037 34.824 74.261 34.312C74.261 33.7573 74.2823 33.2027 74.325 32.648L74.517 29.768C74.5597 29.2987 74.581 28.8507 74.581 28.424C74.6237 27.9973 74.645 27.5707 74.645 27.144V26.952C74.7303 26.44 74.773 25.928 74.773 25.416C74.773 24.904 74.773 24.3707 74.773 23.816V19.4C74.7303 18.9307 74.6877 18.4613 74.645 17.992C74.645 17.5227 74.645 17.0533 74.645 16.584C74.645 16.072 74.6237 15.56 74.581 15.048C74.5383 14.4933 74.4743 13.9387 74.389 13.384C74.3463 13.0427 74.2823 12.68 74.197 12.296C74.1543 11.912 74.133 11.528 74.133 11.144C74.133 11.0587 74.1117 10.9733 74.069 10.888C74.069 10.8027 74.069 10.7173 74.069 10.632C73.813 9.48 73.685 8.30667 73.685 7.112V4.424C73.685 4.12533 73.685 3.848 73.685 3.592C73.7277 3.29333 73.7703 2.99466 73.813 2.696C73.8983 2.184 74.069 1.8 74.325 1.544L74.645 1.16C74.901 0.818665 75.1997 0.583998 75.541 0.455997C75.8823 0.28533 76.245 0.178664 76.629 0.135998H77.077C77.717 0.135998 78.229 0.370664 78.613 0.839996C78.6983 0.882665 78.7623 0.925332 78.805 0.967999C78.8477 1.01066 78.8903 1.05333 78.933 1.096C79.1463 1.26666 79.2743 1.45866 79.317 1.672C79.5303 2.09866 79.637 2.376 79.637 2.504C79.6797 2.632 79.701 2.93067 79.701 3.4V3.848C79.701 4.14666 79.701 4.44533 79.701 4.744C79.701 5 79.7223 5.27733 79.765 5.576C79.8077 5.66133 79.829 5.78933 79.829 5.96C79.829 6.25866 79.829 6.55733 79.829 6.856C79.8717 7.15466 79.9143 7.45333 79.957 7.752C79.9997 8.17867 80.0423 8.60533 80.085 9.032C80.1277 9.416 80.149 9.84266 80.149 10.312C80.149 10.3973 80.149 10.504 80.149 10.632C80.1917 10.7173 80.213 10.8027 80.213 10.888C80.213 10.9307 80.213 10.9947 80.213 11.08C80.2557 11.1227 80.277 11.1867 80.277 11.272L80.469 14.536C80.5117 14.7493 80.533 14.984 80.533 15.24C80.533 15.4533 80.533 15.688 80.533 15.944C80.5757 15.9867 80.597 16.0933 80.597 16.264C80.5543 16.4773 80.533 16.712 80.533 16.968C80.533 17.1813 80.5543 17.3947 80.597 17.608V21.832C80.5543 22.088 80.5543 22.344 80.597 22.6V22.984C80.5543 23.3253 80.533 23.688 80.533 24.072C80.533 24.4133 80.5117 24.776 80.469 25.16C80.469 25.4587 80.469 25.7787 80.469 26.12C80.469 26.4187 80.4477 26.7387 80.405 27.08C80.3623 27.2507 80.341 27.4427 80.341 27.656C80.341 27.8693 80.341 28.0827 80.341 28.296C80.341 28.4667 80.3197 28.68 80.277 28.936C80.277 29.1493 80.2557 29.3627 80.213 29.576V29.768C80.1703 30.1947 80.1277 30.6213 80.085 31.048C80.085 31.4747 80.0637 31.9227 80.021 32.392C79.9783 32.6053 79.957 32.84 79.957 33.096C79.957 33.352 79.9357 33.608 79.893 33.864C79.8503 34.0347 79.829 34.248 79.829 34.504C79.829 34.7173 79.829 34.9307 79.829 35.144C79.829 35.3573 79.8077 35.5707 79.765 35.784C79.7223 36.2533 79.701 36.7227 79.701 37.192C79.701 37.6187 79.701 38.0667 79.701 38.536V38.6C79.7863 38.8133 79.893 38.92 80.021 38.92L81.301 39.112C82.325 39.24 83.3277 39.304 84.309 39.304C84.565 39.304 84.7783 39.2827 84.949 39.24C85.1623 39.1973 85.397 39.176 85.653 39.176C85.909 39.176 86.1437 39.1547 86.357 39.112H88.149C88.4477 39.112 88.7463 39.0907 89.045 39.048C89.3437 38.9627 89.6423 38.8987 89.941 38.856H90.261C90.7303 38.856 91.1997 38.8347 91.669 38.792C92.1383 38.7067 92.6077 38.664 93.077 38.664H95.189C95.7863 38.664 96.2983 38.536 96.725 38.28C97.0663 38.152 97.3863 38.0667 97.685 38.024C98.0263 37.9813 98.3677 37.9387 98.709 37.896C99.221 37.896 99.669 38.024 100.053 38.28C100.906 38.792 101.461 39.496 101.717 40.392C101.802 40.6907 101.845 41.0107 101.845 41.352C101.888 41.6933 101.888 42.0347 101.845 42.376C101.802 42.76 101.717 43.1227 101.589 43.464C101.461 43.7627 101.29 44.0827 101.077 44.424L100.501 45.256C100.245 45.7253 100.053 46.1947 99.925 46.664C99.8823 47.048 99.8183 47.4107 99.733 47.752C99.6477 48.136 99.605 48.52 99.605 48.904C99.605 49.0747 99.5837 49.2453 99.541 49.416C99.541 49.5867 99.541 49.7573 99.541 49.928C99.4983 50.0987 99.477 50.248 99.477 50.376C99.477 50.504 99.477 50.6533 99.477 50.824C99.477 51.1653 99.3703 51.5493 99.157 51.976C98.901 52.4027 98.517 52.5947 98.005 52.552Z" fill="white"/>
</svg>
